<svg version="1.1" id="Layer_1" xmlns="http://www.w3.org/2000/svg" xmlns:xlink="http://www.w3.org/1999/xlink" x="0px" y="0px"
	 width="75px" viewBox="0 0 1080 1080" enable-background="new 0 0 1080 1080" xml:space="preserve">
<path fill="#171717" opacity="1.000000" stroke="none" 
	d="
M494.000000,1081.000000 
	C329.352264,1081.000000 165.204559,1081.000000 1.028416,1081.000000 
	C1.028416,721.060486 1.028416,361.120972 1.028416,1.090729 
	C360.897980,1.090729 720.795959,1.090729 1080.846924,1.090729 
	C1080.846924,360.999939 1080.846924,720.999939 1080.846924,1081.000000 
	C885.453857,1081.000000 689.976929,1081.000000 494.000000,1081.000000 
M588.499756,584.636658 
	C621.256714,584.636658 654.013733,584.636658 687.166748,584.636658 
	C687.166748,582.826416 687.166809,581.685791 687.166687,580.545166 
	C687.163269,550.047119 687.236877,519.548706 687.087158,489.051392 
	C687.059448,483.421265 686.593079,477.707214 685.540833,472.182007 
	C677.991699,432.542053 644.759277,403.182953 604.192566,400.331085 
	C601.898865,400.169800 599.199402,401.463715 597.158142,402.798218 
	C589.547119,407.774109 582.736084,414.467010 574.536255,417.961212 
	C543.079102,431.366180 514.445862,425.696899 488.994080,402.998322 
	C487.404846,401.581024 484.800964,399.952148 483.039276,400.299408 
	C472.652893,402.346954 461.642517,403.342773 452.193115,407.653778 
	C416.425781,423.971313 398.611847,452.729034 398.068756,491.886658 
	C397.666656,520.879272 397.989594,549.881836 397.989532,578.880005 
	C397.989532,580.646851 397.989532,582.413757 397.989532,584.636597 
	C461.572418,584.636597 524.536072,584.636597 588.499756,584.636658 
M491.256744,274.759766 
	C468.901123,296.589905 461.127106,328.451172 472.526367,355.903046 
	C485.150391,386.304352 508.338470,402.868378 541.381592,404.187500 
	C586.096802,405.972656 623.627747,365.172333 617.801941,321.086029 
	C613.848999,291.172333 597.539124,269.835358 569.310486,259.128479 
	C540.769226,248.303055 514.710815,254.356216 491.256744,274.759766 
M436.078918,669.941162 
	C442.712952,669.941162 449.347015,669.941162 456.651855,669.941162 
	C456.651855,667.764221 456.651794,665.983215 456.651886,664.202271 
	C456.652313,653.042969 456.629547,641.883545 456.664520,630.724365 
	C456.678833,626.160583 460.966583,621.926819 465.604279,622.072388 
	C470.706940,622.232422 471.743225,625.920349 471.859222,630.049255 
	C471.994873,634.875366 471.959473,639.706848 471.967499,644.535950 
	C471.981323,652.850220 471.971313,661.164551 471.971313,669.687378 
	C479.652863,669.687378 486.900665,669.687378 494.385193,669.687378 
	C494.528961,668.489929 494.742706,667.529053 494.744812,666.567627 
	C494.771606,654.409058 494.731445,642.250183 494.792938,630.091858 
	C494.812836,626.159180 498.986237,622.259521 503.394928,622.104736 
	C508.143799,621.937927 509.827362,625.024109 509.972473,629.150024 
	C510.177246,634.972534 510.183990,640.802979 510.211273,646.630371 
	C510.246948,654.243713 510.219971,661.857361 510.219971,669.705566 
	C518.104736,669.705566 525.354980,669.705566 533.019043,669.705566 
	C533.019043,659.986694 533.139771,650.503113 532.979065,641.024414 
	C532.860718,634.047241 533.109985,626.946411 531.906128,620.128357 
	C528.969849,603.498657 512.499634,597.339294 498.789032,607.348450 
	C496.557007,608.977966 494.442566,610.768494 492.346375,612.427124 
	C479.805908,597.876892 467.073090,601.123474 455.176880,611.056885 
	C453.153931,608.425354 451.781555,604.807129 449.833954,604.465210 
	C444.850006,603.590210 439.610046,604.173340 434.397095,604.173340 
	C434.178589,605.414917 433.915314,606.216614 433.914215,607.018677 
	C433.886475,626.838806 433.864960,646.658997 433.937805,666.478882 
	C433.941956,667.607788 434.758911,668.733643 436.078918,669.941162 
M792.777405,657.478882 
	C792.777405,631.400085 792.777405,605.321350 792.777405,579.276794 
	C784.805664,579.276794 777.570496,579.276794 770.015503,579.276794 
	C770.015503,588.835754 770.015503,598.029175 770.015503,607.362427 
	C753.703674,599.863953 741.696777,602.744507 734.079163,616.639526 
	C726.398560,630.649658 726.725281,645.298584 734.225159,659.197327 
	C741.329895,672.363953 756.577026,675.320984 768.913025,666.838806 
	C770.054321,666.054016 771.233398,665.324097 772.497681,664.501892 
	C773.262329,666.606140 773.823975,668.151855 774.366394,669.644653 
	C780.451843,669.644653 786.371277,669.644653 792.777405,669.644653 
	C792.777405,665.722961 792.777405,662.095398 792.777405,657.478882 
M716.866699,585.619507 
	C716.866699,583.515686 716.866699,581.411865 716.866699,579.244751 
	C708.963196,579.244751 701.732056,579.244751 694.206421,579.244751 
	C694.206421,588.783081 694.206421,597.988831 694.206421,607.394653 
	C693.421997,607.206360 692.872864,607.230408 692.544006,606.972961 
	C681.955811,598.686523 667.014343,603.723999 659.753601,613.981750 
	C651.134827,626.157959 650.653625,648.067627 658.981812,660.461792 
	C664.823059,669.154846 674.514221,673.508240 683.956360,670.891235 
	C688.423523,669.653015 692.507446,667.031799 696.805847,665.018127 
	C697.333069,666.536377 697.872192,668.088928 698.424377,669.679199 
	C704.486206,669.679199 710.412720,669.679199 716.866699,669.679199 
	C716.866699,641.804749 716.866699,614.200195 716.866699,585.619507 
M381.807129,661.536743 
	C380.961914,655.527161 382.943817,650.878906 388.707062,647.583069 
	C392.337128,654.008972 395.854126,660.385254 399.551147,666.655334 
	C400.312927,667.947266 401.711761,669.731812 402.875580,669.776917 
	C410.236023,670.062134 417.612946,669.921631 425.723206,669.921631 
	C424.384399,667.680237 423.585449,666.253296 422.703217,664.879883 
	C416.315765,654.935669 410.007202,644.938416 403.447327,635.109009 
	C401.741974,632.553650 401.859436,630.909546 403.872040,628.660828 
	C409.642029,622.213867 415.203369,615.579529 420.812073,608.989258 
	C421.909363,607.699951 422.850708,606.277832 424.109039,604.587769 
	C401.750702,602.285278 401.751190,602.285645 388.749298,618.731934 
	C387.510956,620.298340 386.320679,621.908630 384.993866,623.396729 
	C384.329041,624.142334 383.406555,624.658264 381.691986,625.976807 
	C381.691986,609.692871 381.691986,594.484680 381.691986,579.099182 
	C374.122009,579.099182 367.172455,579.099182 360.058502,579.099182 
	C360.058502,609.433350 360.058502,639.572327 360.058502,669.953796 
	C363.994568,669.953796 367.481049,669.953796 370.967499,669.953796 
	C374.408234,669.953796 377.848999,669.953796 381.807068,669.953796 
	C381.807068,667.051880 381.807068,664.761902 381.807129,661.536743 
M316.778473,621.110840 
	C319.693939,622.127380 322.246094,623.435120 321.928467,627.474731 
	C320.436737,627.676147 319.096924,627.679871 317.868652,628.051941 
	C310.613983,630.249817 302.919342,631.619690 296.262970,635.013977 
	C287.484802,639.490234 284.799194,649.875122 288.464020,659.294067 
	C291.975861,668.319824 300.875153,673.410217 310.567169,671.050537 
	C315.567291,669.833191 320.199738,667.105530 324.522125,665.263245 
	C325.974915,666.755188 327.390045,669.523438 329.104980,669.723633 
	C334.303894,670.330566 339.618835,669.943298 344.527374,669.943298 
	C344.527374,654.120178 345.260681,638.813599 344.275787,623.618408 
	C343.591766,613.064514 336.838135,606.028137 326.087860,603.811218 
	C312.843994,601.080078 300.850250,604.551575 289.116760,611.600952 
	C291.784515,616.578064 294.326172,621.319824 296.279449,624.963989 
	C303.478851,623.517517 309.711029,622.265320 316.778473,621.110840 
M587.043091,669.954895 
	C592.037415,669.955444 597.053711,669.668884 602.018860,670.049438 
	C605.840393,670.342285 607.690918,668.975403 608.895264,665.436768 
	C610.609192,660.401001 612.825378,655.536133 615.179565,649.728394 
	C618.749084,656.244263 621.633423,661.665100 624.697937,666.982117 
	C625.370728,668.149414 626.657227,669.751709 627.706482,669.786560 
	C635.055786,670.030579 642.416992,669.915771 650.676636,669.915771 
	C644.543274,660.085815 639.151855,651.127441 633.401428,642.405762 
	C631.468567,639.474243 631.580505,637.254211 633.241882,634.346130 
	C638.110901,625.823425 642.733093,617.159302 647.417786,608.532043 
	C648.084717,607.303772 648.562134,605.972595 649.358582,604.163513 
	C642.631531,604.163513 636.647278,604.371399 630.687073,604.083435 
	C627.268921,603.918274 625.619324,604.997681 624.647156,608.332153 
	C623.149963,613.467468 621.101929,618.442139 618.881287,624.614319 
	C615.562500,617.949524 612.969727,612.571838 610.190857,607.291992 
	C609.559814,606.092957 608.312500,604.387939 607.299561,604.353149 
	C599.954773,604.101196 592.597229,604.217773 584.306458,604.217773 
	C590.152893,614.124817 595.253723,623.063782 600.681396,631.799683 
	C602.492798,634.715210 602.620361,636.924438 600.813232,639.898315 
	C595.542175,648.572388 590.546509,657.415894 585.575562,666.267456 
	C584.981140,667.325928 582.132263,669.393616 587.043091,669.954895 
M578.402344,629.419861 
	C567.514343,629.419861 556.626343,629.419861 545.784058,629.419861 
	C545.784058,634.447632 545.784058,639.373352 545.784058,644.466064 
	C556.837585,644.466064 567.535156,644.466064 578.688171,644.466064 
	C578.688171,639.491638 578.688171,634.871277 578.402344,629.419861 
z"/>
<path fill="#35CAE2" opacity="1.000000" stroke="none" 
	d="
M587.999756,584.636597 
	C524.536072,584.636597 461.572418,584.636597 397.989532,584.636597 
	C397.989532,582.413757 397.989532,580.646851 397.989532,578.880005 
	C397.989594,549.881836 397.666656,520.879272 398.068756,491.886658 
	C398.611847,452.729034 416.425781,423.971313 452.193115,407.653778 
	C461.642517,403.342773 472.652893,402.346954 483.039276,400.299408 
	C484.800964,399.952148 487.404846,401.581024 488.994080,402.998322 
	C514.445862,425.696899 543.079102,431.366180 574.536255,417.961212 
	C582.736084,414.467010 589.547119,407.774109 597.158142,402.798218 
	C599.199402,401.463715 601.898865,400.169800 604.192566,400.331085 
	C644.759277,403.182953 677.991699,432.542053 685.540833,472.182007 
	C686.593079,477.707214 687.059448,483.421265 687.087158,489.051392 
	C687.236877,519.548706 687.163269,550.047119 687.166687,580.545166 
	C687.166809,581.685791 687.166748,582.826416 687.166748,584.636658 
	C654.013733,584.636658 621.256714,584.636658 587.999756,584.636597 
M561.697815,448.124054 
	C532.013245,453.442657 505.181580,446.798218 481.309143,428.529816 
	C478.139099,426.103912 475.459259,425.593811 471.766327,426.456573 
	C444.783875,432.760193 423.870575,456.866760 422.764099,485.053833 
	C421.810852,509.337708 422.381012,533.681519 422.301086,557.998840 
	C422.299011,558.627319 422.569489,559.256714 422.748230,560.040894 
	C502.888428,560.040894 582.904114,560.040894 662.912964,560.040894 
	C663.104004,559.226196 663.311462,558.755737 663.310608,558.285706 
	C663.262939,533.467041 663.768433,508.630188 662.979736,483.834595 
	C662.125244,456.970306 639.272095,431.367493 612.710693,426.334747 
	C610.498230,425.915588 607.394531,426.718018 605.604553,428.109894 
	C592.760803,438.096924 578.538574,444.921539 561.697815,448.124054 
z"/>
<path fill="#36CBE3" opacity="1.000000" stroke="none" 
	d="
M491.508148,274.513550 
	C514.710815,254.356216 540.769226,248.303055 569.310486,259.128479 
	C597.539124,269.835358 613.848999,291.172333 617.801941,321.086029 
	C623.627747,365.172333 586.096802,405.972656 541.381592,404.187500 
	C508.338470,402.868378 485.150391,386.304352 472.526367,355.903046 
	C461.127106,328.451172 468.901123,296.589905 491.508148,274.513550 
M585.457031,301.168488 
	C562.154297,268.898041 515.599426,271.266022 497.656647,305.634399 
	C486.016754,327.929901 491.990173,354.800659 512.002686,370.168671 
	C531.200928,384.911346 559.303345,383.823151 576.925293,367.654724 
	C595.858093,350.283508 599.498840,323.398926 585.457031,301.168488 
z"/>
<path fill="#35C9E1" opacity="1.000000" stroke="none" 
	d="
M435.638245,669.901062 
	C434.758911,668.733643 433.941956,667.607788 433.937805,666.478882 
	C433.864960,646.658997 433.886475,626.838806 433.914215,607.018677 
	C433.915314,606.216614 434.178589,605.414917 434.397095,604.173340 
	C439.610046,604.173340 444.850006,603.590210 449.833954,604.465210 
	C451.781555,604.807129 453.153931,608.425354 455.176880,611.056885 
	C467.073090,601.123474 479.805908,597.876892 492.346375,612.427124 
	C494.442566,610.768494 496.557007,608.977966 498.789032,607.348450 
	C512.499634,597.339294 528.969849,603.498657 531.906128,620.128357 
	C533.109985,626.946411 532.860718,634.047241 532.979065,641.024414 
	C533.139771,650.503113 533.019043,659.986694 533.019043,669.705566 
	C525.354980,669.705566 518.104736,669.705566 510.219971,669.705566 
	C510.219971,661.857361 510.246948,654.243713 510.211273,646.630371 
	C510.183990,640.802979 510.177246,634.972534 509.972473,629.150024 
	C509.827362,625.024109 508.143799,621.937927 503.394928,622.104736 
	C498.986237,622.259521 494.812836,626.159180 494.792938,630.091858 
	C494.731445,642.250183 494.771606,654.409058 494.744812,666.567627 
	C494.742706,667.529053 494.528961,668.489929 494.385193,669.687378 
	C486.900665,669.687378 479.652863,669.687378 471.971313,669.687378 
	C471.971313,661.164551 471.981323,652.850220 471.967499,644.535950 
	C471.959473,639.706848 471.994873,634.875366 471.859222,630.049255 
	C471.743225,625.920349 470.706940,622.232422 465.604279,622.072388 
	C460.966583,621.926819 456.678833,626.160583 456.664520,630.724365 
	C456.629547,641.883545 456.652313,653.042969 456.651886,664.202271 
	C456.651794,665.983215 456.651855,667.764221 456.651855,669.941162 
	C449.347015,669.941162 442.712952,669.941162 435.638245,669.901062 
z"/>
<path fill="#35CBE2" opacity="1.000000" stroke="none" 
	d="
M792.777405,657.973389 
	C792.777405,662.095398 792.777405,665.722961 792.777405,669.644653 
	C786.371277,669.644653 780.451843,669.644653 774.366394,669.644653 
	C773.823975,668.151855 773.262329,666.606140 772.497681,664.501892 
	C771.233398,665.324097 770.054321,666.054016 768.913025,666.838806 
	C756.577026,675.320984 741.329895,672.363953 734.225159,659.197327 
	C726.725281,645.298584 726.398560,630.649658 734.079163,616.639526 
	C741.696777,602.744507 753.703674,599.863953 770.015503,607.362427 
	C770.015503,598.029175 770.015503,588.835754 770.015503,579.276794 
	C777.570496,579.276794 784.805664,579.276794 792.777405,579.276794 
	C792.777405,605.321350 792.777405,631.400085 792.777405,657.973389 
M769.939026,647.753052 
	C769.957947,640.957947 769.831726,634.157898 770.060181,627.369873 
	C770.166199,624.219666 768.588867,622.878235 765.997375,622.057617 
	C759.414429,619.973083 754.152710,622.656189 753.101379,629.533752 
	C752.339783,634.515564 752.190979,639.877014 753.251343,644.746338 
	C753.907410,647.759216 756.829834,651.262878 759.652100,652.577942 
	C763.428101,654.337463 767.438232,652.614990 769.939026,647.753052 
z"/>
<path fill="#35CBE2" opacity="1.000000" stroke="none" 
	d="
M716.866699,586.107544 
	C716.866699,614.200195 716.866699,641.804749 716.866699,669.679199 
	C710.412720,669.679199 704.486206,669.679199 698.424377,669.679199 
	C697.872192,668.088928 697.333069,666.536377 696.805847,665.018127 
	C692.507446,667.031799 688.423523,669.653015 683.956360,670.891235 
	C674.514221,673.508240 664.823059,669.154846 658.981812,660.461792 
	C650.653625,648.067627 651.134827,626.157959 659.753601,613.981750 
	C667.014343,603.723999 681.955811,598.686523 692.544006,606.972961 
	C692.872864,607.230408 693.421997,607.206360 694.206421,607.394653 
	C694.206421,597.988831 694.206421,588.783081 694.206421,579.244751 
	C701.732056,579.244751 708.963196,579.244751 716.866699,579.244751 
	C716.866699,581.411865 716.866699,583.515686 716.866699,586.107544 
M682.697937,621.959717 
	C675.570496,626.931824 673.883362,644.641113 679.995239,650.664734 
	C682.799377,653.428406 686.184021,653.681030 689.667908,652.367188 
	C693.016846,651.104126 694.305359,648.557861 694.131714,644.921753 
	C693.902588,640.122375 694.076477,635.303833 694.075623,630.493530 
	C694.074280,622.694885 691.492493,620.572937 682.697937,621.959717 
z"/>
<path fill="#35CAE2" opacity="1.000000" stroke="none" 
	d="
M381.807098,662.004272 
	C381.807068,664.761902 381.807068,667.051880 381.807068,669.953796 
	C377.848999,669.953796 374.408234,669.953796 370.967499,669.953796 
	C367.481049,669.953796 363.994568,669.953796 360.058502,669.953796 
	C360.058502,639.572327 360.058502,609.433350 360.058502,579.099182 
	C367.172455,579.099182 374.122009,579.099182 381.691986,579.099182 
	C381.691986,594.484680 381.691986,609.692871 381.691986,625.976807 
	C383.406555,624.658264 384.329041,624.142334 384.993866,623.396729 
	C386.320679,621.908630 387.510956,620.298340 388.749298,618.731934 
	C401.751190,602.285645 401.750702,602.285278 424.109039,604.587769 
	C422.850708,606.277832 421.909363,607.699951 420.812073,608.989258 
	C415.203369,615.579529 409.642029,622.213867 403.872040,628.660828 
	C401.859436,630.909546 401.741974,632.553650 403.447327,635.109009 
	C410.007202,644.938416 416.315765,654.935669 422.703217,664.879883 
	C423.585449,666.253296 424.384399,667.680237 425.723206,669.921631 
	C417.612946,669.921631 410.236023,670.062134 402.875580,669.776917 
	C401.711761,669.731812 400.312927,667.947266 399.551147,666.655334 
	C395.854126,660.385254 392.337128,654.008972 388.707062,647.583069 
	C382.943817,650.878906 380.961914,655.527161 381.807098,662.004272 
z"/>
<path fill="#36CBE3" opacity="1.000000" stroke="none" 
	d="
M316.360840,621.062012 
	C309.711029,622.265320 303.478851,623.517517 296.279449,624.963989 
	C294.326172,621.319824 291.784515,616.578064 289.116760,611.600952 
	C300.850250,604.551575 312.843994,601.080078 326.087860,603.811218 
	C336.838135,606.028137 343.591766,613.064514 344.275787,623.618408 
	C345.260681,638.813599 344.527374,654.120178 344.527374,669.943298 
	C339.618835,669.943298 334.303894,670.330566 329.104980,669.723633 
	C327.390045,669.523438 325.974915,666.755188 324.522125,665.263245 
	C320.199738,667.105530 315.567291,669.833191 310.567169,671.050537 
	C300.875153,673.410217 291.975861,668.319824 288.464020,659.294067 
	C284.799194,649.875122 287.484802,639.490234 296.262970,635.013977 
	C302.919342,631.619690 310.613983,630.249817 317.868652,628.051941 
	C319.096924,627.679871 320.436737,627.676147 321.928467,627.474731 
	C322.246094,623.435120 319.693939,622.127380 316.360840,621.062012 
M309.353210,651.935486 
	C312.413147,655.173279 315.858917,654.607849 319.265686,652.744873 
	C324.198120,650.047607 322.744720,645.580078 322.404694,641.380554 
	C312.691010,642.135254 309.046295,644.846497 309.353210,651.935486 
z"/>
<path fill="#35C9E1" opacity="1.000000" stroke="none" 
	d="
M586.611267,669.951416 
	C582.132263,669.393616 584.981140,667.325928 585.575562,666.267456 
	C590.546509,657.415894 595.542175,648.572388 600.813232,639.898315 
	C602.620361,636.924438 602.492798,634.715210 600.681396,631.799683 
	C595.253723,623.063782 590.152893,614.124817 584.306458,604.217773 
	C592.597229,604.217773 599.954773,604.101196 607.299561,604.353149 
	C608.312500,604.387939 609.559814,606.092957 610.190857,607.291992 
	C612.969727,612.571838 615.562500,617.949524 618.881287,624.614319 
	C621.101929,618.442139 623.149963,613.467468 624.647156,608.332153 
	C625.619324,604.997681 627.268921,603.918274 630.687073,604.083435 
	C636.647278,604.371399 642.631531,604.163513 649.358582,604.163513 
	C648.562134,605.972595 648.084717,607.303772 647.417786,608.532043 
	C642.733093,617.159302 638.110901,625.823425 633.241882,634.346130 
	C631.580505,637.254211 631.468567,639.474243 633.401428,642.405762 
	C639.151855,651.127441 644.543274,660.085815 650.676636,669.915771 
	C642.416992,669.915771 635.055786,670.030579 627.706482,669.786560 
	C626.657227,669.751709 625.370728,668.149414 624.697937,666.982117 
	C621.633423,661.665100 618.749084,656.244263 615.179565,649.728394 
	C612.825378,655.536133 610.609192,660.401001 608.895264,665.436768 
	C607.690918,668.975403 605.840393,670.342285 602.018860,670.049438 
	C597.053711,669.668884 592.037415,669.955444 586.611267,669.951416 
z"/>
<path fill="#35C6DD" opacity="1.000000" stroke="none" 
	d="
M578.545288,629.835388 
	C578.688171,634.871277 578.688171,639.491638 578.688171,644.466064 
	C567.535156,644.466064 556.837585,644.466064 545.784058,644.466064 
	C545.784058,639.373352 545.784058,634.447632 545.784058,629.419861 
	C556.626343,629.419861 567.514343,629.419861 578.545288,629.835388 
z"/>
<path fill="#171919" opacity="1.000000" stroke="none" 
	d="
M562.121338,448.064270 
	C578.538574,444.921539 592.760803,438.096924 605.604553,428.109894 
	C607.394531,426.718018 610.498230,425.915588 612.710693,426.334747 
	C639.272095,431.367493 662.125244,456.970306 662.979736,483.834595 
	C663.768433,508.630188 663.262939,533.467041 663.310608,558.285706 
	C663.311462,558.755737 663.104004,559.226196 662.912964,560.040894 
	C582.904114,560.040894 502.888428,560.040894 422.748230,560.040894 
	C422.569489,559.256714 422.299011,558.627319 422.301086,557.998840 
	C422.381012,533.681519 421.810852,509.337708 422.764099,485.053833 
	C423.870575,456.866760 444.783875,432.760193 471.766327,426.456573 
	C475.459259,425.593811 478.139099,426.103912 481.309143,428.529816 
	C505.181580,446.798218 532.013245,453.442657 562.121338,448.064270 
M521.958130,539.389587 
	C522.457581,539.950134 522.859436,540.839355 523.471313,541.020874 
	C530.450806,543.091370 537.462280,545.053833 544.775757,547.133423 
	C552.374695,520.341187 559.884644,493.862793 567.536316,466.884766 
	C559.588745,464.638428 552.177124,462.543579 544.266113,460.307526 
	C536.752380,486.809143 529.413086,512.695679 521.958130,539.389587 
M577.551147,495.951385 
	C580.220520,498.402893 582.889954,500.854431 586.190247,503.885315 
	C581.539001,508.188171 577.564697,511.864746 573.235779,515.869385 
	C579.587585,521.791016 585.329224,527.143860 590.171143,531.657837 
	C599.678101,522.352966 609.354187,512.882568 618.169495,504.254639 
	C608.839600,494.882507 599.295044,485.294708 590.635681,476.596100 
	C585.351929,481.329254 579.580322,486.499420 573.666687,491.796814 
	C575.050659,493.291229 576.051636,494.372070 577.551147,495.951385 
M509.481750,519.032532 
	C510.285309,518.052429 511.088867,517.072388 512.976807,514.769653 
	C508.542633,511.251678 504.264160,507.857239 498.865509,503.574097 
	C504.088287,499.262756 508.312378,495.775848 512.231628,492.540588 
	C506.029602,486.344299 500.542603,480.862335 495.411041,475.735504 
	C485.974518,485.171997 476.474091,494.672455 467.352814,503.793732 
	C476.591553,513.173401 486.129486,522.856873 495.807404,532.682434 
	C500.058502,528.460815 504.539642,524.010742 509.481750,519.032532 
z"/>
<path fill="#171818" opacity="1.000000" stroke="none" 
	d="
M585.651001,301.478455 
	C599.498840,323.398926 595.858093,350.283508 576.925293,367.654724 
	C559.303345,383.823151 531.200928,384.911346 512.002686,370.168671 
	C491.990173,354.800659 486.016754,327.929901 497.656647,305.634399 
	C515.599426,271.266022 562.154297,268.898041 585.651001,301.478455 
z"/>
<path fill="#181C1C" opacity="1.000000" stroke="none" 
	d="
M769.855103,648.172485 
	C767.438232,652.614990 763.428101,654.337463 759.652100,652.577942 
	C756.829834,651.262878 753.907410,647.759216 753.251343,644.746338 
	C752.190979,639.877014 752.339783,634.515564 753.101379,629.533752 
	C754.152710,622.656189 759.414429,619.973083 765.997375,622.057617 
	C768.588867,622.878235 770.166199,624.219666 770.060181,627.369873 
	C769.831726,634.157898 769.957947,640.957947 769.855103,648.172485 
z"/>
<path fill="#181C1C" opacity="1.000000" stroke="none" 
	d="
M683.063293,621.850342 
	C691.492493,620.572937 694.074280,622.694885 694.075623,630.493530 
	C694.076477,635.303833 693.902588,640.122375 694.131714,644.921753 
	C694.305359,648.557861 693.016846,651.104126 689.667908,652.367188 
	C686.184021,653.681030 682.799377,653.428406 679.995239,650.664734 
	C673.883362,644.641113 675.570496,626.931824 683.063293,621.850342 
z"/>
<path fill="#192224" opacity="1.000000" stroke="none" 
	d="
M309.180908,651.562866 
	C309.046295,644.846497 312.691010,642.135254 322.404694,641.380554 
	C322.744720,645.580078 324.198120,650.047607 319.265686,652.744873 
	C315.858917,654.607849 312.413147,655.173279 309.180908,651.562866 
z"/>
<path fill="#35CAE2" opacity="1.000000" stroke="none" 
	d="
M522.015991,538.985840 
	C529.413086,512.695679 536.752380,486.809143 544.266113,460.307526 
	C552.177124,462.543579 559.588745,464.638428 567.536316,466.884766 
	C559.884644,493.862793 552.374695,520.341187 544.775757,547.133423 
	C537.462280,545.053833 530.450806,543.091370 523.471313,541.020874 
	C522.859436,540.839355 522.457581,539.950134 522.015991,538.985840 
z"/>
<path fill="#35CAE2" opacity="1.000000" stroke="none" 
	d="
M577.301880,495.702148 
	C576.051636,494.372070 575.050659,493.291229 573.666687,491.796814 
	C579.580322,486.499420 585.351929,481.329254 590.635681,476.596100 
	C599.295044,485.294708 608.839600,494.882507 618.169495,504.254639 
	C609.354187,512.882568 599.678101,522.352966 590.171143,531.657837 
	C585.329224,527.143860 579.587585,521.791016 573.235779,515.869385 
	C577.564697,511.864746 581.539001,508.188171 586.190247,503.885315 
	C582.889954,500.854431 580.220520,498.402893 577.301880,495.702148 
z"/>
<path fill="#35C9E1" opacity="1.000000" stroke="none" 
	d="
M509.251251,519.296631 
	C504.539642,524.010742 500.058502,528.460815 495.807404,532.682434 
	C486.129486,522.856873 476.591553,513.173401 467.352814,503.793732 
	C476.474091,494.672455 485.974518,485.171997 495.411041,475.735504 
	C500.542603,480.862335 506.029602,486.344299 512.231628,492.540588 
	C508.312378,495.775848 504.088287,499.262756 498.865509,503.574097 
	C504.264160,507.857239 508.542633,511.251678 512.976807,514.769653 
	C511.088867,517.072388 510.285309,518.052429 509.251251,519.296631 
z"/>
</svg>